<svg width="64" height="64" viewBox="0 0 64 64" fill="none" xmlns="http://www.w3.org/2000/svg">
<path d="M37.3333 32C37.3333 29.0667 34.9333 26.6667 32 26.6667C29.0667 26.6667 26.6667 29.0667 26.6667 32C26.6667 34.9333 29.0667 37.3333 32 37.3333C34.9333 37.3333 37.3333 34.9333 37.3333 32ZM32 8C18.7467 8 8 18.7467 8 32H0L10.6667 42.6667L21.3333 32H13.3333C13.3333 21.68 21.68 13.3333 32 13.3333C42.32 13.3333 50.6667 21.68 50.6667 32C50.6667 42.32 42.32 50.6667 32 50.6667C27.9733 50.6667 24.24 49.36 21.1733 47.2L17.3867 51.04C21.44 54.1333 26.5067 56 32 56C45.2533 56 56 45.2533 56 32C56 18.7467 45.2533 8 32 8Z" fill="white"/>
</svg>
