<svg width="40" height="40" viewBox="0 0 40 40" fill="none" xmlns="http://www.w3.org/2000/svg">
<path d="M29.016 10.6044C30.0945 9.52597 31.867 9.5152 32.7412 10.765C34.464 13.2279 35.4591 16.1492 35.5786 19.1907C35.7345 23.1585 34.3888 27.0393 31.8099 30.0589C29.2309 33.0784 25.6084 35.0146 21.665 35.4814C17.7216 35.9481 13.7472 34.911 10.5347 32.5769C7.32212 30.2429 5.10761 26.7835 4.33292 22.8888C3.55824 18.9942 4.28032 14.9507 6.35513 11.5649C8.42994 8.17913 11.7049 5.70002 15.5268 4.62216C18.4564 3.79593 21.5422 3.8396 24.4169 4.71699C25.8757 5.16221 26.4131 6.85131 25.7207 8.21026C25.0283 9.56921 23.3624 10.0674 21.8682 9.76142C20.2759 9.43537 18.6156 9.48966 17.026 9.93798C14.5418 10.6386 12.413 12.25 11.0644 14.4508C9.7158 16.6515 9.24644 19.2798 9.74999 21.8113C10.2535 24.3428 11.693 26.5914 13.7811 28.1086C15.8693 29.6257 18.4526 30.2998 21.0159 29.9965C23.5791 29.6931 25.9337 28.4345 27.61 26.4718C29.2863 24.5091 30.161 21.9866 30.0597 19.4075C29.9948 17.7572 29.5334 16.1613 28.7313 14.7478C27.9786 13.4213 27.9376 11.6829 29.016 10.6044Z" fill="#2F2626"/>
<path d="M31.6673 8.33275C33.0341 6.96592 35.2806 6.95227 36.3885 8.53622C38.5719 11.6577 39.8331 15.36 39.9846 19.2148C40.1821 24.2436 38.4766 29.162 35.2081 32.9889C31.9396 36.8158 27.3486 39.2698 22.3507 39.8613C17.3529 40.4528 12.3159 39.1384 8.24433 36.1803C4.1728 33.2221 1.36617 28.8378 0.384348 23.9018C-0.597477 18.9658 0.317682 13.8411 2.94726 9.55002C5.57683 5.25896 9.7275 2.11699 14.5712 0.750915C18.2841 -0.296226 22.195 -0.24088 25.8384 0.871105C27.6872 1.43537 28.3684 3.57611 27.4909 5.29841C26.6133 7.02072 24.5019 7.6521 22.6082 7.26432C20.5902 6.8511 18.4859 6.91991 16.4713 7.48809C13.3229 8.37604 10.6249 10.4183 8.91572 13.2075C7.2065 15.9967 6.61165 19.3278 7.24983 22.5361C7.88802 25.7445 9.71233 28.5944 12.3588 30.5172C15.0053 32.44 18.2794 33.2943 21.528 32.9099C24.7766 32.5254 27.7608 30.9303 29.8853 28.4428C32.0098 25.9553 33.1184 22.7583 32.99 19.4896C32.9078 17.398 32.323 15.3754 31.3064 13.5839C30.3524 11.9027 30.3004 9.69958 31.6673 8.33275Z" fill="#D73582"/>
</svg>
