<svg width="24" height="24" viewBox="0 0 24 24" fill="none" xmlns="http://www.w3.org/2000/svg">
<path d="M7.91994 7.54C7.11994 7.2 6.77994 6.21 7.25994 5.49C8.22994 4.05 9.84994 3 11.9899 3C14.3399 3 15.9499 4.07 16.7699 5.41C17.4699 6.56 17.8799 8.71 16.7999 10.31C15.5999 12.08 14.4499 12.62 13.8299 13.76C13.6799 14.03 13.5899 14.25 13.5299 14.7C13.4399 15.43 12.8399 16 12.0999 16C11.2299 16 10.5199 15.25 10.6199 14.38C10.6799 13.87 10.7999 13.34 11.0799 12.84C11.8499 11.45 13.3299 10.63 14.1899 9.4C15.0999 8.11 14.5899 5.7 12.0099 5.7C10.8399 5.7 10.0799 6.31 9.60994 7.04C9.25994 7.61 8.52994 7.79 7.91994 7.54ZM13.9999 20C13.9999 21.1 13.0999 22 11.9999 22C10.8999 22 9.99994 21.1 9.99994 20C9.99994 18.9 10.8999 18 11.9999 18C13.0999 18 13.9999 18.9 13.9999 20Z" fill="white"/>
</svg>
